<svg xmlns="http://www.w3.org/2000/svg" xmlns:xlink="http://www.w3.org/1999/xlink" width="2000" zoomAndPan="magnify" viewBox="0 0 1500 1499.999933" height="2000" preserveAspectRatio="xMidYMid meet" version="1.0"><defs><g/><clipPath id="a352e6aee8"><path d="M 131.085938 85.3125 L 1409.085938 85.3125 L 1409.085938 493.3125 L 131.085938 493.3125 Z M 131.085938 85.3125 " clip-rule="nonzero"/></clipPath><clipPath id="a22c2cd523"><path d="M 126.496094 1004.160156 L 1404.496094 1004.160156 L 1404.496094 1414.410156 L 126.496094 1414.410156 Z M 126.496094 1004.160156 " clip-rule="nonzero"/></clipPath></defs><g clip-path="url(#a352e6aee8)"><path fill="#231f20" d="M 1351.414062 1207.660156 C 1373.160156 1176.746094 1392.460938 1144.027344 1409.132812 1109.761719 L 1279.074219 1109.761719 C 1187.410156 1224.617188 1046.222656 1298.222656 887.832031 1298.222656 C 729.441406 1298.222656 588.253906 1224.617188 496.589844 1109.761719 L 131.132812 1109.761719 C 134.316406 1117.484375 137.613281 1125.148438 141.023438 1132.75 L 295.921875 1235.007812 L 469.191406 1134.988281 L 492.332031 1175.074219 L 294.292969 1289.386719 L 196.605469 1224.898438 C 257.902344 1306.792969 336.40625 1375.050781 426.746094 1424.347656 L 526.378906 1440.90625 L 643.972656 1279.066406 L 681.414062 1306.257812 L 555.875 1479.035156 C 622.820312 1499.839844 693.984375 1511.054688 767.777344 1511.054688 C 787.496094 1511.054688 807.007812 1510.214844 826.3125 1508.652344 L 862.246094 1339.597656 L 907.523438 1349.226562 L 874.824219 1503.050781 C 959.371094 1490.320312 1039.046875 1462.730469 1111.140625 1423.046875 L 1086.285156 1306.125 L 1131.550781 1296.511719 L 1153.144531 1398.039062 C 1217.3125 1356.734375 1274.410156 1305.402344 1322.257812 1246.277344 L 1277.332031 1184.445312 L 1314.773438 1157.253906 Z M 496.339844 486.609375 C 588 371.566406 729.296875 297.832031 887.832031 297.832031 C 1046.371094 297.832031 1187.667969 371.566406 1279.320312 486.609375 L 1409.132812 486.609375 C 1380.210938 427.21875 1343.328125 372.441406 1299.800781 323.679688 L 1242.046875 375.664062 L 1211.078125 341.273438 L 1267.859375 290.160156 C 1215.6875 238.804688 1155.652344 195.410156 1089.703125 161.984375 L 1041.132812 271.074219 L 998.851562 252.257812 L 1047.753906 142.421875 C 975.53125 111.554688 897.183594 92.289062 815.035156 86.917969 L 815.035156 257.242188 L 768.75 257.242188 L 768.75 85.332031 C 768.421875 85.332031 768.109375 85.320312 767.777344 85.320312 C 691.777344 85.320312 618.574219 97.261719 549.878906 119.277344 L 521.480469 153.804688 L 602.855469 336.554688 L 560.574219 355.386719 L 469.394531 150.617188 C 418.261719 174.210938 370.382812 203.648438 326.65625 238.125 L 292.601562 361.449219 L 431.636719 486.609375 Z M 362.464844 486.609375 L 240.375 376.695312 L 263 294.769531 C 221.820312 336.046875 185.703125 382.359375 155.582031 432.683594 C 150.453125 442.941406 145.507812 453.308594 140.804688 463.808594 L 144.238281 486.609375 Z M 825.449219 1191.898438 C 737.410156 1191.898438 656.132812 1163.011719 590.554688 1114.199219 C 668.835938 1188.710938 774.765625 1234.464844 891.371094 1234.464844 C 1010.285156 1234.464844 1118.089844 1186.894531 1196.785156 1109.761719 L 1066.160156 1109.761719 C 999.589844 1161.238281 916.109375 1191.898438 825.449219 1191.898438 Z M 891.371094 361.90625 C 774.765625 361.90625 668.835938 407.648438 590.554688 482.171875 C 656.132812 433.359375 737.410156 404.472656 825.449219 404.472656 C 916.109375 404.472656 999.601562 435.121094 1066.160156 486.609375 L 1196.785156 486.609375 C 1118.089844 409.476562 1010.285156 361.90625 891.371094 361.90625 " fill-opacity="1" fill-rule="nonzero"/></g><g fill="#231f20" fill-opacity="1"><g transform="translate(35.810003, 981.274959)"><g><path d="M 91.75 1.328125 L 87.09375 0.671875 L 67.8125 0.671875 L 58.5 -0.671875 L 53.1875 -0.671875 L 48.53125 0 L 41.21875 -0.671875 L 36.5625 -1.328125 L 31.25 -0.671875 L 25.921875 -2 L 20.609375 -6.65625 L 19.953125 -16.625 L 23.265625 -25.921875 L 23.9375 -35.90625 L 25.265625 -40.5625 L 26.59375 -49.859375 L 27.265625 -55.1875 L 29.25 -65.15625 L 29.921875 -69.8125 L 31.25 -75.125 L 31.90625 -79.78125 L 34.578125 -88.421875 L 33.90625 -92.421875 L 35.90625 -104.390625 L 37.890625 -111.703125 L 39.234375 -117.6875 L 41.21875 -123.65625 L 42.546875 -129.640625 L 43.875 -137.625 L 43.875 -142.28125 L 45.203125 -146.9375 L 45.875 -150.921875 L 47.203125 -155.578125 L 46.546875 -160.234375 L 51.1875 -174.859375 L 52.53125 -184.828125 L 52.53125 -188.8125 L 53.859375 -193.46875 L 54.515625 -198.125 L 55.1875 -202.125 L 56.515625 -211.421875 L 56.515625 -220.734375 L 59.171875 -230.046875 L 59.171875 -234.703125 L 60.5 -244 L 63.15625 -249.328125 L 63.15625 -257.96875 L 64.484375 -265.9375 L 66.484375 -274.59375 L 69.8125 -283.890625 L 71.8125 -297.859375 L 71.8125 -307.171875 L 73.796875 -311.8125 L 75.125 -321.125 L 75.796875 -325.109375 L 75.125 -329.765625 L 77.78125 -337.75 L 78.453125 -341.734375 L 80.453125 -350.375 L 81.109375 -355.03125 L 83.765625 -363.671875 L 83.109375 -368.328125 L 83.765625 -373.65625 L 84.4375 -382.296875 L 85.765625 -385.625 L 87.09375 -394.921875 L 89.09375 -403.5625 L 89.75 -407.5625 L 91.078125 -411.546875 L 91.75 -419.53125 L 93.078125 -426.84375 L 95.734375 -434.15625 L 97.0625 -444.125 L 98.40625 -448.109375 L 99.0625 -452.765625 L 103.71875 -459.421875 L 108.375 -461.40625 L 112.359375 -464.078125 L 117.015625 -464.734375 L 126.984375 -465.40625 L 132.96875 -464.734375 L 142.28125 -464.734375 L 146.9375 -465.40625 L 182.171875 -465.40625 L 186.828125 -466.0625 L 194.140625 -464.078125 L 196.796875 -457.421875 L 196.140625 -453.4375 L 196.140625 -444.796875 L 194.796875 -442.796875 L 194.140625 -435.484375 L 194.796875 -431.5 L 192.8125 -428.828125 L 192.8125 -422.84375 L 190.8125 -419.53125 L 189.484375 -410.21875 L 186.828125 -404.234375 L 186.828125 -398.921875 L 186.15625 -394.921875 L 186.15625 -390.265625 L 185.5 -386.28125 L 182.171875 -369 L 180.84375 -361.6875 L 179.515625 -357.6875 L 178.1875 -349.71875 L 177.515625 -345.0625 L 176.859375 -337.078125 L 176.1875 -332.421875 L 174.859375 -323.78125 L 172.859375 -315.8125 L 170.875 -307.171875 L 170.203125 -303.84375 L 168.203125 -294.53125 L 166.21875 -288.546875 L 166.21875 -282.5625 L 165.546875 -277.90625 L 164.890625 -272.59375 L 164.890625 -267.9375 L 163.5625 -259.296875 L 161.5625 -252.640625 L 158.234375 -232.703125 L 155.578125 -223.390625 L 153.578125 -218.734375 L 153.578125 -213.421875 L 151.59375 -204.78125 L 150.265625 -196.140625 L 148.921875 -188.15625 L 146.265625 -178.84375 L 146.265625 -173.53125 L 143.609375 -164.21875 L 143.609375 -158.90625 L 142.28125 -149.59375 L 141.609375 -146.265625 L 141.609375 -136.96875 L 138.296875 -130.3125 L 138.953125 -123 L 136.96875 -113.03125 L 136.296875 -107.703125 L 133.640625 -99.0625 L 133.640625 -93.75 L 131.640625 -84.4375 L 130.3125 -75.125 L 128.984375 -66.484375 L 128.984375 -61.828125 L 126.984375 -54.515625 L 124.328125 -38.5625 L 122.328125 -29.921875 L 121 -20.609375 L 119.015625 -11.96875 L 118.34375 -6.65625 L 116.34375 -0.671875 L 109.03125 1.328125 Z M 91.75 1.328125 "/></g></g></g><g fill="#231f20" fill-opacity="1"><g transform="translate(184.071611, 981.274959)"><g><path d="M 33.90625 1.328125 L 23.9375 0 L 20.609375 -7.984375 L 21.9375 -13.296875 L 21.9375 -23.9375 L 23.265625 -34.578125 L 25.921875 -43.875 L 26.59375 -48.53125 L 28.59375 -57.84375 L 29.921875 -61.171875 L 31.90625 -70.46875 L 33.25 -76.453125 L 35.234375 -87.09375 L 35.234375 -91.75 L 36.5625 -97.0625 L 36.5625 -105.71875 L 39.234375 -110.359375 L 39.890625 -118.34375 L 40.5625 -123 L 42.546875 -130.984375 L 43.21875 -134.96875 L 42.546875 -139.625 L 43.875 -148.265625 L 46.546875 -158.90625 L 47.875 -166.875 L 49.203125 -172.859375 L 51.1875 -180.171875 L 52.53125 -188.15625 L 53.1875 -192.8125 L 54.515625 -196.796875 L 55.1875 -205.4375 L 55.84375 -209.4375 L 55.84375 -213.421875 L 59.171875 -221.390625 L 59.84375 -225.390625 L 60.5 -230.046875 L 61.171875 -239.34375 L 61.828125 -246 L 65.15625 -253.96875 L 66.484375 -259.296875 L 67.8125 -265.9375 L 67.8125 -275.25 L 68.484375 -280.578125 L 70.46875 -285.890625 L 70.46875 -291.203125 L 72.46875 -295.859375 L 72.46875 -300.515625 L 73.796875 -305.171875 L 75.125 -313.8125 L 77.125 -321.125 L 79.125 -327.109375 L 79.125 -335.09375 L 79.78125 -339.75 L 81.109375 -343.734375 L 84.4375 -362.34375 L 84.4375 -367 L 87.09375 -372.984375 L 88.421875 -378.96875 L 89.09375 -387.609375 L 89.75 -392.265625 L 90.421875 -396.25 L 91.078125 -400.90625 L 92.421875 -404.90625 L 93.078125 -409.546875 L 94.40625 -418.203125 L 95.734375 -426.171875 L 97.734375 -434.8125 L 97.734375 -440.140625 L 99.734375 -448.78125 L 101.0625 -452.765625 L 103.046875 -456.09375 L 107.046875 -463.40625 L 113.6875 -464.734375 L 123 -465.40625 L 134.296875 -464.734375 L 140.28125 -464.734375 L 148.921875 -465.40625 L 161.5625 -464.734375 L 169.546875 -465.40625 L 179.515625 -464.734375 L 188.8125 -464.734375 L 196.140625 -462.734375 L 200.125 -456.765625 L 200.78125 -452.109375 L 203.453125 -445.453125 L 204.78125 -437.484375 L 205.4375 -430.15625 L 208.09375 -420.859375 L 210.765625 -404.90625 L 212.75 -394.265625 L 214.75 -382.953125 L 216.75 -373.65625 L 219.40625 -360.359375 L 220.734375 -355.03125 L 221.390625 -350.375 L 222.734375 -340.40625 L 224.71875 -331.765625 L 224.71875 -327.78125 L 226.71875 -320.46875 L 226.71875 -315.8125 L 227.375 -308.5 L 229.375 -298.515625 L 230.703125 -287.21875 L 232.703125 -275.921875 L 233.359375 -265.28125 L 234.703125 -255.96875 L 236.03125 -250.65625 L 238.015625 -232.703125 L 240.671875 -217.40625 L 242.015625 -202.78125 L 242.015625 -198.125 L 243.34375 -193.46875 L 244.671875 -185.5 L 246.65625 -167.546875 L 248.65625 -152.921875 L 250.65625 -152.921875 L 251.3125 -166.21875 L 252.640625 -182.171875 L 252.640625 -191.484375 L 254.640625 -223.390625 L 256.640625 -237.359375 L 256.640625 -259.953125 L 258.625 -269.265625 L 259.296875 -273.25 L 259.953125 -277.90625 L 260.625 -283.234375 L 261.296875 -292.53125 L 262.625 -296.53125 L 263.953125 -305.828125 L 263.953125 -309.828125 L 266.609375 -318.46875 L 266.609375 -326.453125 L 267.265625 -334.421875 L 267.265625 -339.078125 L 271.265625 -347.0625 L 270.59375 -351.703125 L 272.59375 -363.671875 L 272.59375 -367.671875 L 274.59375 -376.3125 L 275.25 -380.96875 L 276.578125 -384.953125 L 277.90625 -394.265625 L 278.578125 -399.578125 L 280.578125 -408.890625 L 281.90625 -413.546875 L 283.890625 -418.859375 L 283.890625 -424.84375 L 284.5625 -428.828125 L 286.546875 -439.46875 L 289.21875 -453.4375 L 294.53125 -462.734375 L 297.1875 -464.734375 L 309.828125 -467.390625 L 323.78125 -466.0625 L 328.4375 -466.734375 L 335.09375 -466.734375 L 350.375 -466.0625 L 357.03125 -466.0625 L 366.34375 -466.734375 L 375.640625 -464.734375 L 379.640625 -462.734375 L 380.296875 -457.421875 L 380.296875 -452.109375 L 378.3125 -442.796875 L 378.96875 -437.484375 L 376.96875 -422.84375 L 375.640625 -413.546875 L 371.65625 -397.578125 L 369.65625 -390.265625 L 367.671875 -378.3125 L 366.34375 -372.984375 L 364.34375 -359.03125 L 361.6875 -348.390625 L 360.359375 -337.75 L 358.359375 -331.765625 L 357.03125 -326.453125 L 355.703125 -321.796875 L 355.703125 -313.15625 L 354.375 -308.5 L 351.703125 -288.546875 L 349.71875 -282.5625 L 349.046875 -275.25 L 348.390625 -270.59375 L 347.0625 -265.28125 L 345.0625 -256.640625 L 343.734375 -251.984375 L 341.734375 -243.34375 L 340.40625 -234.03125 L 339.078125 -228.71875 L 339.75 -222.734375 L 338.40625 -218.734375 L 337.75 -214.078125 L 336.421875 -210.09375 L 335.75 -205.4375 L 335.09375 -201.453125 L 335.09375 -192.8125 L 333.09375 -188.8125 L 331.09375 -179.515625 L 329.765625 -173.53125 L 329.109375 -167.546875 L 328.4375 -163.5625 L 327.78125 -158.90625 L 327.109375 -154.90625 L 327.109375 -150.921875 L 324.453125 -141.609375 L 323.125 -132.3125 L 321.796875 -125.65625 L 319.125 -119.671875 L 316.46875 -111.703125 L 315.8125 -104.390625 L 315.140625 -95.734375 L 313.8125 -87.09375 L 311.8125 -81.78125 L 309.15625 -72.46875 L 309.15625 -61.828125 L 305.828125 -53.1875 L 305.828125 -49.203125 L 304.5 -44.546875 L 302.515625 -35.90625 L 299.1875 -14.625 L 293.203125 -6.65625 L 286.546875 -2 L 277.25 -1.328125 L 269.9375 0 L 267.265625 0 L 254.640625 -0.671875 L 249.984375 0 L 243.34375 -0.671875 L 239.34375 0 L 226.046875 0 L 217.40625 -0.671875 L 206.109375 -0.671875 L 200.78125 -5.3125 L 195.46875 -15.953125 L 192.140625 -25.265625 L 191.484375 -28.59375 L 190.8125 -36.5625 L 190.15625 -40.5625 L 188.8125 -54.515625 L 188.15625 -58.5 L 185.5 -72.46875 L 184.828125 -76.453125 L 183.5 -85.765625 L 182.84375 -95.734375 L 180.84375 -103.046875 L 178.84375 -113.03125 L 178.84375 -117.015625 L 176.859375 -126.328125 L 176.1875 -130.3125 L 174.1875 -139.625 L 173.53125 -143.609375 L 173.53125 -153.578125 L 170.875 -166.875 L 169.546875 -179.515625 L 166.875 -198.125 L 163.5625 -219.40625 L 161.5625 -238.015625 L 157.578125 -261.953125 L 153.578125 -287.21875 L 151.59375 -287.21875 L 150.921875 -268.609375 L 150.265625 -255.3125 L 149.59375 -248 L 148.265625 -236.6875 L 147.59375 -220.0625 L 142.9375 -188.15625 L 140.28125 -162.21875 L 138.953125 -158.234375 L 136.96875 -149.59375 L 138.296875 -144.9375 L 136.296875 -136.96875 L 134.96875 -132.3125 L 135.625 -127.65625 L 134.96875 -123.65625 L 133.640625 -114.359375 L 130.984375 -104.390625 L 128.3125 -91.078125 L 126.984375 -81.78125 L 126.328125 -77.78125 L 125 -73.140625 L 122.328125 -53.859375 L 120.34375 -45.203125 L 119.671875 -40.5625 L 119.671875 -31.90625 L 118.34375 -27.921875 L 116.34375 -15.953125 L 113.6875 -7.984375 L 111.703125 -1.328125 L 104.390625 1.328125 Z M 33.90625 1.328125 "/></g></g></g><g fill="#ffbd59" fill-opacity="1"><g transform="translate(515.833403, 981.274959)"><g><path d="M 82.4375 2 L 76.453125 0 L 71.8125 0 L 65.828125 -5.3125 L 67.15625 -15.296875 L 67.8125 -29.25 L 72.46875 -43.21875 L 73.796875 -47.875 L 74.46875 -57.84375 L 75.796875 -61.828125 L 76.453125 -71.140625 L 76.453125 -75.796875 L 79.78125 -85.109375 L 80.453125 -89.75 L 79.78125 -95.078125 L 83.109375 -109.03125 L 83.109375 -114.359375 L 85.109375 -122.328125 L 87.09375 -132.3125 L 88.421875 -136.96875 L 89.09375 -141.609375 L 90.421875 -150.265625 L 91.75 -154.25 L 92.421875 -163.5625 L 95.734375 -170.203125 L 94.40625 -176.859375 L 95.078125 -181.5 L 96.40625 -186.15625 L 99.734375 -195.46875 L 102.390625 -205.4375 L 103.71875 -210.09375 L 102.390625 -214.75 L 105.71875 -222.734375 L 107.046875 -226.71875 L 107.046875 -236.03125 L 109.03125 -242.671875 L 109.03125 -248.65625 L 110.359375 -253.3125 L 113.03125 -257.296875 L 113.03125 -261.953125 L 114.359375 -265.9375 L 116.34375 -275.921875 L 115.6875 -280.578125 L 119.015625 -287.890625 L 119.015625 -294.53125 L 120.34375 -297.859375 L 120.34375 -303.171875 L 121 -307.828125 L 122.328125 -312.484375 L 125.65625 -323.125 L 126.328125 -327.109375 L 126.328125 -331.09375 L 126.984375 -335.75 L 126.984375 -339.75 L 128.984375 -348.390625 L 130.3125 -353.046875 L 131.640625 -363.015625 L 132.3125 -373.65625 L 96.40625 -373.65625 L 87.09375 -374.3125 L 82.4375 -373.65625 L 76.453125 -373.65625 L 69.8125 -374.3125 L 64.484375 -374.3125 L 58.5 -376.3125 L 56.515625 -382.296875 L 57.84375 -390.265625 L 59.84375 -395.59375 L 59.84375 -400.90625 L 59.171875 -405.5625 L 61.828125 -414.875 L 63.15625 -418.859375 L 63.828125 -428.171875 L 66.484375 -436.8125 L 68.484375 -440.796875 L 68.484375 -450.109375 L 69.140625 -454.09375 L 72.46875 -461.40625 L 78.453125 -466.0625 L 83.109375 -466.734375 L 100.390625 -466.734375 L 103.71875 -466.0625 L 108.375 -466.0625 L 113.03125 -466.734375 L 162.21875 -466.734375 L 166.875 -466.0625 L 181.5 -466.0625 L 224.0625 -466.734375 L 234.03125 -466.0625 L 248 -466.734375 L 253.96875 -466.0625 L 295.203125 -466.0625 L 304.5 -465.40625 L 310.484375 -464.078125 L 311.8125 -458.75 L 311.8125 -454.765625 L 311.15625 -450.109375 L 309.828125 -444.796875 L 309.828125 -440.140625 L 309.15625 -436.140625 L 307.828125 -431.5 L 307.828125 -427.5 L 306.5 -419.53125 L 305.171875 -414.875 L 304.5 -410.890625 L 303.84375 -402.90625 L 301.1875 -394.265625 L 299.84375 -389.609375 L 299.1875 -380.296875 L 296.53125 -374.3125 L 289.875 -373.65625 L 283.890625 -374.3125 L 275.921875 -374.3125 L 269.9375 -373.65625 L 263.28125 -373.65625 L 235.359375 -374.3125 L 229.375 -373.65625 L 228.046875 -369 L 228.71875 -365 L 226.71875 -360.359375 L 226.71875 -356.359375 L 225.390625 -352.375 L 224.0625 -343.734375 L 223.390625 -339.078125 L 220.734375 -327.109375 L 218.078125 -321.796875 L 219.40625 -318.46875 L 216.078125 -309.15625 L 213.421875 -300.515625 L 213.421875 -296.53125 L 212.75 -288.546875 L 212.09375 -284.5625 L 212.09375 -279.90625 L 208.765625 -271.921875 L 207.4375 -261.953125 L 206.109375 -257.296875 L 204.109375 -248 L 202.125 -244 L 202.125 -239.34375 L 201.453125 -230.703125 L 199.453125 -222.734375 L 196.796875 -218.078125 L 196.140625 -208.765625 L 194.796875 -204.78125 L 194.796875 -200.78125 L 192.8125 -191.484375 L 190.8125 -181.5 L 189.484375 -175.515625 L 189.484375 -168.875 L 188.8125 -164.890625 L 187.484375 -160.890625 L 186.828125 -156.234375 L 184.171875 -148.265625 L 183.5 -143.609375 L 182.84375 -139.625 L 183.5 -134.96875 L 181.5 -125.65625 L 179.515625 -115.015625 L 176.859375 -106.375 L 176.1875 -101.71875 L 174.1875 -93.078125 L 170.875 -79.125 L 169.546875 -73.796875 L 167.546875 -64.484375 L 168.203125 -59.171875 L 164.890625 -44.546875 L 160.890625 -25.921875 L 159.5625 -16.625 L 157.578125 -7.3125 L 156.234375 -3.328125 L 148.265625 0 L 90.421875 0 Z M 82.4375 2 "/></g></g></g><g fill="#ffbd59" fill-opacity="1"><g transform="translate(748.531181, 981.274959)"><g><path d="M 91.75 1.328125 L 87.09375 0.671875 L 67.8125 0.671875 L 58.5 -0.671875 L 53.1875 -0.671875 L 48.53125 0 L 41.21875 -0.671875 L 36.5625 -1.328125 L 31.25 -0.671875 L 25.921875 -2 L 20.609375 -6.65625 L 19.953125 -16.625 L 23.265625 -25.921875 L 23.9375 -35.90625 L 25.265625 -40.5625 L 26.59375 -49.859375 L 27.265625 -55.1875 L 29.25 -65.15625 L 29.921875 -69.8125 L 31.25 -75.125 L 31.90625 -79.78125 L 34.578125 -88.421875 L 33.90625 -92.421875 L 35.90625 -104.390625 L 37.890625 -111.703125 L 39.234375 -117.6875 L 41.21875 -123.65625 L 42.546875 -129.640625 L 43.875 -137.625 L 43.875 -142.28125 L 45.203125 -146.9375 L 45.875 -150.921875 L 47.203125 -155.578125 L 46.546875 -160.234375 L 51.1875 -174.859375 L 52.53125 -184.828125 L 52.53125 -188.8125 L 53.859375 -193.46875 L 54.515625 -198.125 L 55.1875 -202.125 L 56.515625 -211.421875 L 56.515625 -220.734375 L 59.171875 -230.046875 L 59.171875 -234.703125 L 60.5 -244 L 63.15625 -249.328125 L 63.15625 -257.96875 L 64.484375 -265.9375 L 66.484375 -274.59375 L 69.8125 -283.890625 L 71.8125 -297.859375 L 71.8125 -307.171875 L 73.796875 -311.8125 L 75.125 -321.125 L 75.796875 -325.109375 L 75.125 -329.765625 L 77.78125 -337.75 L 78.453125 -341.734375 L 80.453125 -350.375 L 81.109375 -355.03125 L 83.765625 -363.671875 L 83.109375 -368.328125 L 83.765625 -373.65625 L 84.4375 -382.296875 L 85.765625 -385.625 L 87.09375 -394.921875 L 89.09375 -403.5625 L 89.75 -407.5625 L 91.078125 -411.546875 L 91.75 -419.53125 L 93.078125 -426.84375 L 95.734375 -434.15625 L 97.0625 -444.125 L 98.40625 -448.109375 L 99.0625 -452.765625 L 103.71875 -459.421875 L 108.375 -461.40625 L 112.359375 -464.078125 L 117.015625 -464.734375 L 126.984375 -465.40625 L 132.96875 -464.734375 L 142.28125 -464.734375 L 146.9375 -465.40625 L 182.171875 -465.40625 L 186.828125 -466.0625 L 194.140625 -464.078125 L 196.796875 -457.421875 L 196.140625 -453.4375 L 196.140625 -444.796875 L 194.796875 -442.796875 L 194.140625 -435.484375 L 194.796875 -431.5 L 192.8125 -428.828125 L 192.8125 -422.84375 L 190.8125 -419.53125 L 189.484375 -410.21875 L 186.828125 -404.234375 L 186.828125 -398.921875 L 186.15625 -394.921875 L 186.15625 -390.265625 L 185.5 -386.28125 L 182.171875 -369 L 180.84375 -361.6875 L 179.515625 -357.6875 L 178.1875 -349.71875 L 177.515625 -345.0625 L 176.859375 -337.078125 L 176.1875 -332.421875 L 174.859375 -323.78125 L 172.859375 -315.8125 L 170.875 -307.171875 L 170.203125 -303.84375 L 168.203125 -294.53125 L 166.21875 -288.546875 L 166.21875 -282.5625 L 165.546875 -277.90625 L 164.890625 -272.59375 L 164.890625 -267.9375 L 163.5625 -259.296875 L 161.5625 -252.640625 L 158.234375 -232.703125 L 155.578125 -223.390625 L 153.578125 -218.734375 L 153.578125 -213.421875 L 151.59375 -204.78125 L 150.265625 -196.140625 L 148.921875 -188.15625 L 146.265625 -178.84375 L 146.265625 -173.53125 L 143.609375 -164.21875 L 143.609375 -158.90625 L 142.28125 -149.59375 L 141.609375 -146.265625 L 141.609375 -136.96875 L 138.296875 -130.3125 L 138.953125 -123 L 136.96875 -113.03125 L 136.296875 -107.703125 L 133.640625 -99.0625 L 133.640625 -93.75 L 131.640625 -84.4375 L 130.3125 -75.125 L 128.984375 -66.484375 L 128.984375 -61.828125 L 126.984375 -54.515625 L 124.328125 -38.5625 L 122.328125 -29.921875 L 121 -20.609375 L 119.015625 -11.96875 L 118.34375 -6.65625 L 116.34375 -0.671875 L 109.03125 1.328125 Z M 91.75 1.328125 "/></g></g></g><g fill="#ffbd59" fill-opacity="1"><g transform="translate(896.792765, 981.274959)"><g><path d="M 87.765625 1.328125 L 63.828125 0.671875 L 55.1875 0.671875 L 34.578125 -0.671875 L 28.59375 -2 L 27.265625 -5.984375 L 27.265625 -11.96875 L 29.25 -18.609375 L 29.921875 -25.265625 L 30.578125 -32.578125 L 30.578125 -37.234375 L 31.90625 -41.21875 L 31.90625 -45.875 L 33.90625 -50.53125 L 33.90625 -54.515625 L 34.578125 -59.171875 L 36.5625 -68.484375 L 36.5625 -73.140625 L 38.5625 -78.453125 L 37.890625 -83.109375 L 39.890625 -88.421875 L 40.5625 -97.734375 L 41.890625 -103.046875 L 42.546875 -107.703125 L 41.890625 -113.03125 L 44.546875 -118.34375 L 44.546875 -128.3125 L 47.875 -140.28125 L 47.875 -146.265625 L 49.203125 -152.921875 L 49.859375 -162.890625 L 49.859375 -168.203125 L 52.53125 -177.515625 L 53.1875 -182.171875 L 53.859375 -187.484375 L 53.859375 -193.46875 L 57.171875 -198.125 L 58.5 -202.125 L 57.84375 -206.109375 L 58.5 -214.078125 L 59.84375 -218.734375 L 61.828125 -222.734375 L 61.828125 -226.71875 L 63.15625 -231.375 L 64.484375 -238.6875 L 65.15625 -242.671875 L 66.484375 -251.3125 L 67.8125 -260.625 L 67.8125 -265.9375 L 71.140625 -279.90625 L 71.140625 -284.5625 L 71.8125 -288.546875 L 72.46875 -293.203125 L 73.796875 -301.84375 L 74.46875 -305.828125 L 74.46875 -310.484375 L 75.125 -314.484375 L 77.78125 -322.453125 L 78.453125 -331.765625 L 79.125 -335.75 L 81.109375 -345.0625 L 83.109375 -355.703125 L 85.109375 -365 L 85.765625 -369 L 85.765625 -372.984375 L 86.4375 -381.625 L 86.4375 -385.625 L 87.765625 -390.265625 L 89.75 -398.25 L 91.75 -408.890625 L 94.40625 -427.5 L 95.078125 -432.828125 L 95.734375 -437.484375 L 95.734375 -442.796875 L 98.40625 -448.109375 L 97.734375 -455.421875 L 100.390625 -458.75 L 105.046875 -464.078125 L 111.703125 -465.40625 L 121 -465.40625 L 160.890625 -464.734375 L 189.484375 -464.734375 L 194.140625 -465.40625 L 200.78125 -466.0625 L 206.109375 -464.734375 L 216.078125 -463.40625 L 222.0625 -463.40625 L 230.703125 -462.078125 L 240.671875 -461.40625 L 248 -460.078125 L 258.625 -460.078125 L 263.953125 -458.75 L 271.265625 -455.421875 L 277.25 -452.765625 L 281.90625 -451.4375 L 287.890625 -447.453125 L 291.875 -445.453125 L 295.203125 -443.46875 L 303.171875 -438.8125 L 305.828125 -436.140625 L 309.15625 -432.15625 L 311.8125 -428.828125 L 316.46875 -420.859375 L 321.125 -411.546875 L 323.125 -400.90625 L 324.453125 -388.28125 L 324.453125 -383.625 L 326.453125 -370.984375 L 326.453125 -365.671875 L 324.453125 -356.359375 L 323.78125 -351.703125 L 324.453125 -341.734375 L 324.453125 -337.078125 L 322.453125 -326.453125 L 321.125 -315.8125 L 319.125 -309.15625 L 316.46875 -301.1875 L 315.140625 -296.53125 L 313.8125 -292.53125 L 311.8125 -287.890625 L 308.5 -279.90625 L 302.515625 -271.265625 L 300.515625 -266.609375 L 297.859375 -260.625 L 292.53125 -251.984375 L 290.546875 -248 L 283.234375 -239.34375 L 279.90625 -236.03125 L 270.59375 -226.046875 L 257.296875 -217.40625 L 248 -212.75 L 243.34375 -212.09375 L 243.34375 -206.109375 L 245.328125 -200.78125 L 248.65625 -190.8125 L 248.65625 -184.828125 L 249.984375 -176.1875 L 252.640625 -172.203125 L 253.3125 -166.875 L 254.640625 -158.234375 L 256.640625 -154.25 L 258.625 -145.609375 L 259.953125 -141.609375 L 261.296875 -132.3125 L 263.28125 -127.65625 L 264.609375 -122.328125 L 267.265625 -113.6875 L 267.265625 -109.703125 L 270.59375 -99.734375 L 271.921875 -91.078125 L 279.234375 -67.15625 L 280.578125 -57.84375 L 285.21875 -46.546875 L 285.890625 -38.5625 L 286.546875 -33.90625 L 287.890625 -27.921875 L 292.53125 -15.296875 L 290.546875 -6.65625 L 287.21875 -5.984375 L 279.90625 -4.65625 L 271.265625 -4.65625 L 257.296875 -2.65625 L 240.015625 -0.671875 L 231.375 -0.671875 L 224.0625 0 L 218.734375 0 L 212.75 0.671875 L 208.765625 0 L 202.78125 -5.984375 L 201.453125 -9.3125 L 199.453125 -17.28125 L 198.125 -20.609375 L 196.140625 -27.921875 L 192.140625 -37.890625 L 192.140625 -43.21875 L 190.15625 -48.53125 L 188.8125 -50.53125 L 187.484375 -59.171875 L 185.5 -63.828125 L 185.5 -68.484375 L 183.5 -72.46875 L 182.84375 -77.125 L 180.84375 -84.4375 L 178.1875 -91.078125 L 178.1875 -99.0625 L 174.1875 -111.03125 L 173.53125 -115.6875 L 170.875 -123.65625 L 169.546875 -128.3125 L 168.203125 -136.96875 L 165.546875 -145.609375 L 164.890625 -154.90625 L 163.5625 -158.234375 L 161.5625 -167.546875 L 160.234375 -174.1875 L 157.578125 -179.515625 L 156.234375 -184.828125 L 153.578125 -190.15625 L 150.921875 -192.8125 L 146.265625 -193.46875 L 145.609375 -190.8125 L 144.28125 -186.828125 L 142.28125 -177.515625 L 141.609375 -172.203125 L 139.625 -158.234375 L 139.625 -146.9375 L 136.296875 -138.296875 L 134.96875 -128.984375 L 134.96875 -125 L 133.640625 -115.6875 L 130.984375 -110.359375 L 130.984375 -96.40625 L 129.640625 -91.078125 L 126.984375 -77.125 L 126.328125 -71.8125 L 125 -67.8125 L 125 -62.5 L 123 -53.1875 L 123.65625 -49.203125 L 122.328125 -44.546875 L 122.328125 -40.5625 L 121.671875 -31.90625 L 121 -27.265625 L 121 -23.265625 L 120.34375 -18.609375 L 119.671875 -10.640625 L 117.6875 -5.984375 L 115.6875 0 L 109.03125 -0.671875 L 103.046875 0 L 93.078125 0.671875 Z M 174.1875 -272.59375 L 184.828125 -272.59375 L 192.8125 -274.59375 L 196.796875 -277.25 L 203.453125 -281.234375 L 208.09375 -283.890625 L 212.75 -289.21875 L 215.421875 -293.203125 L 220.0625 -297.1875 L 223.390625 -305.828125 L 224.71875 -311.15625 L 225.390625 -315.140625 L 230.046875 -324.453125 L 230.046875 -329.765625 L 232.03125 -335.09375 L 232.703125 -345.734375 L 232.03125 -360.359375 L 230.046875 -374.3125 L 226.71875 -380.296875 L 222.0625 -384.953125 L 216.078125 -388.28125 L 201.453125 -390.265625 L 185.5 -390.9375 L 179.515625 -388.9375 L 177.515625 -381.625 L 175.515625 -376.96875 L 174.1875 -366.34375 L 173.53125 -356.359375 L 172.859375 -347.71875 L 171.53125 -342.40625 L 169.546875 -331.765625 L 169.546875 -327.109375 L 168.203125 -317.140625 L 166.21875 -311.15625 L 166.875 -305.171875 L 165.546875 -299.1875 L 163.5625 -288.546875 L 162.890625 -283.890625 L 163.5625 -279.234375 L 162.890625 -273.921875 Z M 174.1875 -272.59375 "/></g></g></g><g fill="#ffbd59" fill-opacity="1"><g transform="translate(1182.678693, 981.274959)"><g><path d="M 97.734375 0.671875 L 85.109375 0 L 67.8125 0 L 63.15625 -0.671875 L 27.921875 -0.671875 L 21.9375 -2 L 19.953125 -7.984375 L 21.9375 -13.96875 L 23.265625 -19.953125 L 24.59375 -29.921875 L 25.921875 -40.5625 L 28.59375 -50.53125 L 29.25 -61.171875 L 31.25 -66.484375 L 31.25 -72.46875 L 32.578125 -77.125 L 32.578125 -81.78125 L 33.90625 -87.09375 L 34.578125 -91.75 L 35.234375 -101.0625 L 36.5625 -109.703125 L 39.234375 -115.015625 L 40.5625 -125.65625 L 40.5625 -130.3125 L 41.890625 -135.625 L 43.21875 -144.28125 L 43.21875 -147.59375 L 45.875 -155.578125 L 45.203125 -159.5625 L 47.203125 -168.203125 L 49.203125 -172.859375 L 49.859375 -177.515625 L 51.859375 -187.484375 L 53.1875 -192.140625 L 55.84375 -206.109375 L 55.84375 -216.078125 L 58.5 -225.390625 L 59.84375 -235.359375 L 61.828125 -240.015625 L 62.5 -245.328125 L 63.15625 -249.984375 L 63.15625 -254.640625 L 65.828125 -258.625 L 69.8125 -278.578125 L 71.8125 -283.890625 L 73.140625 -288.546875 L 72.46875 -292.53125 L 74.46875 -301.84375 L 77.125 -311.8125 L 77.78125 -330.4375 L 79.78125 -335.09375 L 80.453125 -349.046875 L 83.109375 -353.046875 L 84.4375 -358.359375 L 85.109375 -363.015625 L 84.4375 -367 L 85.109375 -371.65625 L 87.765625 -380.296875 L 89.09375 -389.609375 L 91.078125 -393.59375 L 91.078125 -398.25 L 93.078125 -402.90625 L 92.421875 -406.890625 L 93.75 -411.546875 L 94.40625 -420.1875 L 95.734375 -424.1875 L 96.40625 -428.171875 L 97.0625 -436.8125 L 97.734375 -440.796875 L 96.40625 -445.453125 L 98.40625 -453.4375 L 100.390625 -457.421875 L 101.0625 -461.40625 L 106.375 -465.40625 L 117.6875 -465.40625 L 121.671875 -466.0625 L 126.328125 -465.40625 L 134.296875 -466.0625 L 138.953125 -466.0625 L 144.28125 -465.40625 L 150.921875 -465.40625 L 165.546875 -466.0625 L 215.421875 -466.734375 L 230.703125 -466.0625 L 236.03125 -465.40625 L 255.3125 -466.0625 L 269.9375 -466.0625 L 275.921875 -466.734375 L 282.5625 -466.0625 L 288.546875 -465.40625 L 291.875 -460.75 L 289.875 -453.4375 L 289.875 -449.4375 L 288.546875 -432.828125 L 288.546875 -428.828125 L 286.546875 -424.1875 L 285.890625 -419.53125 L 285.21875 -415.53125 L 283.234375 -405.5625 L 283.234375 -400.25 L 280.578125 -390.9375 L 279.90625 -386.953125 L 277.90625 -378.3125 L 271.265625 -377.640625 L 243.34375 -377.640625 L 235.359375 -376.96875 L 192.140625 -376.96875 L 176.1875 -376.3125 L 174.1875 -368.328125 L 173.53125 -363.671875 L 173.53125 -354.375 L 171.53125 -350.375 L 171.53125 -345.0625 L 169.546875 -332.421875 L 168.203125 -323.125 L 166.21875 -313.8125 L 164.890625 -309.15625 L 165.546875 -303.84375 L 163.5625 -297.1875 L 162.21875 -285.21875 L 174.1875 -285.21875 L 197.46875 -284.5625 L 210.09375 -285.890625 L 227.375 -285.890625 L 232.703125 -284.5625 L 236.6875 -279.234375 L 235.359375 -271.265625 L 235.359375 -265.9375 L 234.03125 -258.625 L 232.03125 -249.328125 L 230.703125 -244.671875 L 228.71875 -234.703125 L 228.71875 -230.046875 L 226.71875 -224.71875 L 225.390625 -215.421875 L 223.390625 -204.78125 L 222.0625 -195.46875 L 220.734375 -194.140625 L 214.078125 -194.140625 L 204.109375 -193.46875 L 198.125 -193.46875 L 181.5 -192.8125 L 170.203125 -193.46875 L 162.890625 -193.46875 L 154.25 -192.8125 L 148.265625 -192.8125 L 145.609375 -185.5 L 143.609375 -176.859375 L 140.953125 -158.234375 L 138.953125 -151.59375 L 137.625 -145.609375 L 136.96875 -138.953125 L 135.625 -134.296875 L 133.640625 -122.328125 L 130.984375 -105.046875 L 130.984375 -99.734375 L 133.640625 -97.0625 L 142.9375 -95.734375 L 182.171875 -95.734375 L 191.484375 -95.078125 L 206.109375 -94.40625 L 224.71875 -95.078125 L 229.375 -93.078125 L 228.71875 -87.765625 L 228.046875 -85.109375 L 226.71875 -77.78125 L 226.046875 -72.46875 L 223.390625 -57.84375 L 223.390625 -49.203125 L 222.0625 -44.546875 L 220.734375 -40.5625 L 220.0625 -35.90625 L 218.078125 -25.921875 L 217.40625 -14.625 L 216.078125 -8.640625 L 214.078125 -1.328125 L 150.921875 -1.328125 L 140.28125 -0.671875 L 131.640625 -1.328125 L 127.65625 -0.671875 L 113.6875 -0.671875 L 103.046875 0 Z M 97.734375 0.671875 "/></g></g></g><g clip-path="url(#a22c2cd523)"><path fill="#231f20" d="M 1346.828125 1111.242188 C 1368.570312 1080.328125 1387.871094 1047.609375 1404.546875 1013.34375 L 1274.488281 1013.34375 C 1182.824219 1128.203125 1041.636719 1201.804688 883.246094 1201.804688 C 724.855469 1201.804688 583.667969 1128.203125 492.003906 1013.34375 L 126.546875 1013.34375 C 129.726562 1021.070312 133.023438 1028.730469 136.433594 1036.332031 L 291.335938 1138.589844 L 464.601562 1038.570312 L 487.746094 1078.65625 L 289.707031 1192.96875 L 192.015625 1128.480469 C 253.316406 1210.375 331.816406 1278.632812 422.160156 1327.929688 L 521.789062 1344.488281 L 639.386719 1182.648438 L 676.828125 1209.839844 L 551.289062 1382.617188 C 618.234375 1403.421875 689.398438 1414.636719 763.191406 1414.636719 C 782.910156 1414.636719 802.417969 1413.796875 821.722656 1412.234375 L 857.660156 1243.179688 L 902.933594 1252.808594 L 870.234375 1406.632812 C 954.785156 1393.902344 1034.460938 1366.3125 1106.554688 1326.628906 L 1081.695312 1209.707031 L 1126.960938 1200.09375 L 1148.554688 1301.621094 C 1212.726562 1260.316406 1269.824219 1208.984375 1317.667969 1149.859375 L 1272.746094 1088.027344 L 1310.1875 1060.835938 Z M 491.75 390.191406 C 583.410156 275.152344 724.707031 201.414062 883.246094 201.414062 C 1041.78125 201.414062 1183.078125 275.152344 1274.734375 390.191406 L 1404.546875 390.191406 C 1375.625 330.800781 1338.742188 276.023438 1295.214844 227.261719 L 1237.457031 279.246094 L 1206.492188 244.855469 L 1263.273438 193.742188 C 1211.101562 142.386719 1151.066406 98.992188 1085.117188 65.570312 L 1036.542969 174.65625 L 994.261719 155.84375 L 1043.164062 46.003906 C 970.945312 15.136719 892.59375 -4.128906 810.445312 -9.5 L 810.445312 160.824219 L 764.164062 160.824219 L 764.164062 -11.085938 C 763.835938 -11.085938 763.523438 -11.097656 763.191406 -11.097656 C 687.191406 -11.097656 613.984375 0.84375 545.292969 22.863281 L 516.894531 57.386719 L 598.269531 240.140625 L 555.988281 258.96875 L 464.804688 54.199219 C 413.671875 77.792969 365.796875 107.230469 322.070312 141.707031 L 288.015625 265.03125 L 427.046875 390.191406 Z M 357.875 390.191406 L 235.785156 280.277344 L 258.410156 198.351562 C 217.234375 239.628906 181.113281 285.941406 150.996094 336.265625 C 145.863281 346.523438 140.921875 356.890625 136.21875 367.390625 L 139.652344 390.191406 Z M 820.863281 1095.480469 C 732.820312 1095.480469 651.542969 1066.59375 585.96875 1017.78125 C 664.246094 1092.292969 770.175781 1138.046875 886.785156 1138.046875 C 1005.695312 1138.046875 1113.5 1090.476562 1192.195312 1013.34375 L 1061.570312 1013.34375 C 995 1064.824219 911.523438 1095.480469 820.863281 1095.480469 Z M 886.785156 265.488281 C 770.175781 265.488281 664.246094 311.230469 585.96875 385.753906 C 651.542969 336.941406 732.820312 308.054688 820.863281 308.054688 C 911.523438 308.054688 995.015625 338.703125 1061.570312 390.191406 L 1192.195312 390.191406 C 1113.5 313.058594 1005.695312 265.488281 886.785156 265.488281 " fill-opacity="1" fill-rule="nonzero"/></g></svg>